<?xml version="1.0" encoding="UTF-8"?>
<svg xmlns="http://www.w3.org/2000/svg" xmlns:xlink="http://www.w3.org/1999/xlink" width="20px" height="15px" viewBox="0 0 19 15" version="1.1">
<g id="surface1">
<path style=" stroke:none;fill-rule:nonzero;fill:rgb(100%,14.901961%,44.705883%);fill-opacity:1;" d="M 0 0 C 6.269531 0 12.539062 0 19 0 C 19 4.949219 19 9.898438 19 15 C 12.730469 15 6.460938 15 0 15 C 0 10.050781 0 5.101562 0 0 Z M 0 0 "/>
<path style=" stroke:none;fill-rule:nonzero;fill:rgb(100%,97.254902%,98.039216%);fill-opacity:1;" d="M 5.675781 2.425781 C 5.835938 2.425781 6 2.425781 6.167969 2.425781 C 6.511719 2.425781 6.851562 2.429688 7.195312 2.429688 C 7.722656 2.4375 8.246094 2.433594 8.773438 2.433594 C 9.105469 2.433594 9.441406 2.433594 9.773438 2.4375 C 9.929688 2.4375 10.085938 2.433594 10.25 2.433594 C 10.394531 2.4375 10.542969 2.4375 10.691406 2.441406 C 10.820312 2.441406 10.949219 2.441406 11.082031 2.441406 C 11.5 2.511719 11.699219 2.640625 12 2.941406 C 12.054688 3.339844 12.054688 3.339844 12.035156 3.777344 C 12.03125 3.921875 12.027344 4.070312 12.019531 4.21875 C 12.011719 4.332031 12.007812 4.445312 12 4.558594 C 12.085938 4.546875 12.171875 4.53125 12.261719 4.515625 C 13.070312 4.445312 13.519531 4.550781 14.160156 5.074219 C 14.394531 5.292969 14.625 5.515625 14.855469 5.734375 C 14.96875 5.8125 15.085938 5.886719 15.199219 5.96875 C 15.597656 6.265625 15.78125 6.453125 16 6.910156 C 16.136719 7.933594 16.070312 8.976562 16 10 C 16.1875 10.097656 16.378906 10.195312 16.570312 10.292969 C 16.570312 10.585938 16.570312 10.875 16.570312 11.175781 C 16.148438 11.273438 15.722656 11.371094 15.285156 11.46875 C 15.253906 11.625 15.222656 11.78125 15.1875 11.9375 C 15.027344 12.527344 14.742188 12.84375 14.285156 13.234375 C 13.65625 13.453125 13.085938 13.523438 12.429688 13.382812 C 11.988281 13.058594 11.671875 12.703125 11.429688 12.207031 C 11.429688 11.914062 11.429688 11.625 11.429688 11.324219 C 10.53125 11.324219 9.636719 11.324219 8.714844 11.324219 C 8.621094 11.710938 8.527344 12.101562 8.429688 12.5 C 8.125 12.898438 7.726562 13.15625 7.285156 13.382812 C 6.605469 13.457031 6.039062 13.492188 5.4375 13.132812 C 5.019531 12.652344 4.730469 12.300781 4.6875 11.644531 C 4.695312 11.539062 4.707031 11.433594 4.714844 11.324219 C 4.519531 11.347656 4.519531 11.347656 4.320312 11.371094 C 3.855469 11.324219 3.855469 11.324219 3.546875 11.058594 C 3.15625 10.351562 3.203125 9.695312 3.203125 8.898438 C 3.203125 8.734375 3.203125 8.570312 3.203125 8.398438 C 3.199219 8.054688 3.203125 7.707031 3.203125 7.359375 C 3.207031 6.832031 3.199219 6.300781 3.195312 5.769531 C 3.195312 5.433594 3.195312 5.097656 3.195312 4.761719 C 3.191406 4.523438 3.191406 4.523438 3.191406 4.28125 C 3.203125 3.214844 3.203125 3.214844 3.542969 2.695312 C 4.25 2.394531 4.917969 2.417969 5.675781 2.425781 Z M 5.675781 2.425781 "/>
<path style=" stroke:none;fill-rule:nonzero;fill:rgb(100%,19.607843%,47.843137%);fill-opacity:1;" d="M 7.714844 3.804688 C 8.144531 3.824219 8.144531 3.824219 8.285156 3.96875 C 8.304688 4.414062 8.292969 4.851562 8.285156 5.292969 C 8.710938 5.292969 9.132812 5.292969 9.570312 5.292969 C 9.570312 5.683594 9.570312 6.070312 9.570312 6.46875 C 9.148438 6.46875 8.722656 6.46875 8.285156 6.46875 C 8.289062 6.6875 8.292969 6.902344 8.292969 7.125 C 8.296875 7.347656 8.296875 7.570312 8.285156 7.792969 C 8.144531 7.941406 8.144531 7.941406 7.644531 7.960938 C 7.144531 7.941406 7.144531 7.941406 7 7.792969 C 6.980469 7.402344 6.992188 7.011719 7 6.617188 C 6.574219 6.617188 6.152344 6.617188 5.714844 6.617188 C 5.714844 6.179688 5.714844 5.742188 5.714844 5.292969 C 6.1875 5.292969 6.65625 5.292969 7.144531 5.292969 C 7.140625 5.078125 7.136719 4.863281 7.132812 4.640625 C 7.132812 4.417969 7.132812 4.195312 7.144531 3.96875 C 7.285156 3.824219 7.285156 3.824219 7.714844 3.804688 Z M 7.714844 3.804688 "/>
<path style=" stroke:none;fill-rule:nonzero;fill:rgb(100%,19.607843%,47.843137%);fill-opacity:1;" d="M 12 5.882812 C 13 5.882812 13 5.882812 13.441406 6.222656 C 13.578125 6.367188 13.714844 6.511719 13.847656 6.664062 C 13.953125 6.773438 13.953125 6.773438 14.0625 6.886719 C 14.570312 7.4375 14.570312 7.4375 14.570312 7.941406 C 13.722656 7.941406 12.875 7.941406 12 7.941406 C 12 7.261719 12 6.582031 12 5.882812 Z M 12 5.882812 "/>
<path style=" stroke:none;fill-rule:nonzero;fill:rgb(100%,22.352941%,49.803922%);fill-opacity:1;" d="M 6.792969 10.46875 C 6.90625 10.484375 7.019531 10.496094 7.132812 10.511719 C 7.429688 10.589844 7.429688 10.589844 7.714844 10.882812 C 7.683594 11.785156 7.683594 11.785156 7.320312 12.195312 C 6.929688 12.386719 6.714844 12.429688 6.285156 12.351562 C 5.957031 12.113281 5.957031 12.113281 5.714844 11.765625 C 5.648438 11.296875 5.617188 11.019531 5.890625 10.632812 C 6.222656 10.378906 6.390625 10.410156 6.792969 10.46875 Z M 6.792969 10.46875 "/>
<path style=" stroke:none;fill-rule:nonzero;fill:rgb(100%,20.784314%,48.627451%);fill-opacity:1;" d="M 13.277344 10.394531 C 13.640625 10.40625 13.824219 10.421875 14.144531 10.605469 C 14.359375 11.027344 14.359375 11.296875 14.285156 11.765625 C 13.980469 12.125 13.980469 12.125 13.570312 12.351562 C 13.117188 12.34375 13.117188 12.34375 12.714844 12.207031 C 12.363281 11.664062 12.382812 11.371094 12.429688 10.734375 C 12.714844 10.441406 12.714844 10.441406 13.277344 10.394531 Z M 13.277344 10.394531 "/>
</g>
</svg>
