<svg version="1.1" id="Layer_1" xmlns="http://www.w3.org/2000/svg" xmlns:xlink="http://www.w3.org/1999/xlink" x="0px" y="0px"
	 width="16" height="16" viewBox="0 0 325 325" enable-background="new 0 0 325 325" xml:space="preserve">
<path fill="#E5EFFB" opacity="1.000000" stroke="none"
	d="
M265.994812,251.000000 
	C265.994263,221.172699 265.944458,191.845184 266.081482,162.518524 
	C266.093140,160.022690 266.704315,157.057297 268.132446,155.115829 
	C278.674957,140.783722 289.493408,126.654503 300.242950,112.475029 
	C300.510071,112.122665 300.983582,111.926765 301.846924,111.311455 
	C301.922516,112.269821 302.006409,112.837097 302.006409,113.404381 
	C302.008148,167.393250 302.059906,221.382217 301.973724,275.370972 
	C301.934967,299.646820 285.277069,319.308685 261.541962,323.377563 
	C259.098572,323.796417 256.572906,323.874847 254.085327,323.875824 
	C186.765869,323.901520 119.446365,323.926239 52.126926,323.881744 
	C25.482546,323.864136 4.087855,302.654419 4.053043,276.045685 
	C3.964971,208.726318 3.970202,141.406723 4.050225,74.087341 
	C4.081550,47.735435 25.272835,26.246559 51.589565,26.171520 
	C111.743340,25.999996 171.897903,26.103645 232.052139,26.104647 
	C232.360611,26.104650 232.669067,26.235203 233.610672,26.447618 
	C230.672501,30.477165 227.944977,34.347336 225.082520,38.114998 
	C220.052307,44.735912 214.670502,51.109451 209.971878,57.954456 
	C207.528336,61.514217 204.747482,62.192139 200.799866,62.182808 
	C152.310120,62.068157 103.820007,62.104927 55.329990,62.109516 
	C44.335957,62.110554 40.006306,66.480629 40.005932,77.554611 
	C40.003738,142.707870 40.002888,207.861115 40.006466,273.014374 
	C40.007046,283.586945 44.277203,287.897797 54.794178,287.899017 
	C120.280701,287.906677 185.767212,287.906158 251.253738,287.899750 
	C261.889435,287.898712 265.985291,283.740173 265.994202,272.994934 
	C266.000153,265.829956 265.994995,258.664978 265.994812,251.000000 
z"/>
<path fill="#E5EFFB" opacity="1.000000" stroke="none"
	d="
M224.406097,79.392746 
	C241.296417,57.104404 257.770782,34.945438 274.774475,13.200387 
	C279.278503,7.440391 285.740173,5.123304 293.755432,4.404361 
	C302.987946,3.576228 309.793396,6.301748 315.648651,12.217214 
	C325.412994,22.081970 326.380371,37.160751 318.085724,48.325008 
	C303.809296,67.540550 289.240448,86.538780 274.798889,105.631699 
	C252.229309,135.470551 229.673401,165.319763 207.092209,195.149826 
	C194.746964,211.458069 182.174118,227.597916 170.050629,244.068924 
	C159.289932,258.688446 134.122391,257.844330 124.731895,245.063080 
	C110.286148,225.401184 93.758263,207.271912 78.172302,188.443939 
	C67.017105,174.968353 67.839241,158.426376 79.638535,147.753220 
	C90.536591,137.895279 110.186691,139.158325 120.091835,151.102753 
	C128.656769,161.431046 137.253525,171.732956 146.213898,182.500366 
	C172.427795,147.932602 198.308029,113.804825 224.406097,79.392746 
z"/>
</svg>