<?xml version="1.0" standalone="no"?>
<!DOCTYPE svg PUBLIC "-//W3C//DTD SVG 20010904//EN"
 "http://www.w3.org/TR/2001/REC-SVG-20010904/DTD/svg10.dtd">
<svg version="1.0" xmlns="http://www.w3.org/2000/svg"
 width="20" height="20" viewBox="0 0 512.000000 512.000000"
 preserveAspectRatio="xMidYMid meet">

<g transform="translate(0.000000,512.000000) scale(0.100000,-0.100000)"
fill="#8F989E" stroke="none">
<path d="M2340 4679 c-487 -54 -943 -272 -1285 -614 -170 -169 -294 -343 -404
-566 -404 -815 -241 -1799 404 -2444 533 -533 1313 -746 2040 -556 1223 320
1900 1623 1459 2808 -266 716 -911 1240 -1670 1358 -121 19 -428 27 -544 14z
m306 -1085 c43 -20 81 -59 105 -106 18 -34 19 -63 19 -383 l0 -345 365 0 c407
0 408 0 478 -68 95 -93 78 -255 -35 -330 l-41 -27 -381 -5 -381 -5 -5 -397 -5
-396 -30 -44 c-89 -126 -278 -124 -363 4 l-27 42 -5 395 -5 396 -371 5 -371 5
-41 27 c-46 31 -87 94 -97 150 -10 52 17 136 57 177 68 70 72 71 471 71 l357
0 0 343 c0 312 2 346 19 382 20 44 59 84 106 108 39 21 137 22 181 1z"/>
</g>
</svg>
