<svg version="1.2" xmlns="http://www.w3.org/2000/svg" viewBox="0 0 99 91" width="16" height="16">

	<path fill="#E5EFFB" d="m28.1 11.1c-1.5 1.6-2.8 3.4-4.5 4.7-5.4 4.1-10.9 8.1-16.8 12.6 8.5 6.5 16.6 12.6 24.7 18.7 1.6 1.1 3.2 2.2 5.8 4.1 0-5.5 0-9.9 0-14.8 15.5 0 30.3 0 45.3 0 0 9.7 0 19.3 0 29.5-1.7 0.1-3.4 0.2-5.1 0.2-16.7 0.1-33.4 0.2-50 0-4.1-0.1-5.6 1.1-5.5 5.3 0.4 12-1.5 10.3 10.4 10.3 20.1 0.1 40.3 0 60.5 0.1 3.6 0.1 5.3-0.6 5.3-4.9-0.2-17.1-0.2-34.3 0-51.4 0-4-1.4-4.8-5-4.7-16.4 0.1-32.9 0.1-49.4 0.1-1.8 0-3.6 0-6 0 0-5.1 0-9.6 0-15.2-3.6 2.4-6.3 4.1-9.4 5.7-0.3-0.2-0.4-0.3-0.3-0.3z"/>
</svg>