<svg width="25" height="22" viewBox="0 0 25 22" fill="none" xmlns="http://www.w3.org/2000/svg">
<path d="M24.0468 0.296937C23.6374 -0.0465042 22.9944 -0.0956443 22.3295 0.168417H22.3285C21.6292 0.445977 2.53537 8.54816 1.75808 8.87918C1.61671 8.92778 0.381992 9.38354 0.509175 10.3987C0.622712 11.3141 1.61507 11.6931 1.73625 11.7369L6.59049 13.3812C6.91255 14.4417 8.09977 18.3546 8.36233 19.1905C8.52608 19.7116 8.793 20.3963 9.2608 20.5373C9.67128 20.6939 10.0796 20.5508 10.3438 20.3456L13.3116 17.6224L18.1025 21.3187L18.2166 21.3862C18.5419 21.5287 18.8536 21.6 19.1511 21.6C19.3809 21.6 19.6014 21.5573 19.8121 21.472C20.5299 21.1804 20.817 20.5038 20.847 20.4271L24.4256 2.02548C24.644 1.04268 24.3405 0.542638 24.0468 0.296937ZM10.8716 14.0389L9.23405 18.3589L7.5965 12.9589L20.1511 3.77887L10.8716 14.0389Z" fill="#565660"/>
</svg>
