<svg width="21" height="18" viewBox="0 0 21 18" fill="none" xmlns="http://www.w3.org/2000/svg">
<path d="M18.1441 3.18054C19.0012 2.64436 19.6425 1.80009 19.9483 0.805353C19.1429 1.30541 18.2618 1.65766 17.3429 1.84687C16.069 0.436695 14.0505 0.093522 12.4155 1.00911C10.7804 1.9247 9.9335 3.87238 10.348 5.76384C7.04901 5.59052 3.97544 3.95985 1.8921 1.27759C0.804847 3.23999 1.36046 5.74861 3.16182 7.01046C2.51043 6.98855 1.87348 6.804 1.30409 6.47219C1.30409 6.4902 1.30409 6.50821 1.30409 6.52622C1.30447 8.5704 2.68125 10.3312 4.59599 10.7363C3.99179 10.9083 3.35802 10.9337 2.74304 10.8104C3.28153 12.5585 4.82121 13.7561 6.57611 13.7919C5.12265 14.9856 3.32769 15.6329 1.48002 15.6298C1.15252 15.6303 0.82528 15.6106 0.5 15.5707C2.37627 16.8324 4.56002 17.5021 6.79028 17.4997C9.89311 17.522 12.875 16.242 15.069 13.946C17.263 11.6499 18.486 8.52947 18.4644 5.2826C18.4644 5.0965 18.4603 4.91141 18.452 4.72732C19.2556 4.11961 19.9491 3.36679 20.5 2.5042C19.7514 2.85144 18.9573 3.07941 18.1441 3.18054Z" fill="#565660"/>
</svg>
