<svg width="29" height="16" viewBox="0 0 29 16" fill="none" xmlns="http://www.w3.org/2000/svg">
<path d="M16.3047 7.99987C16.3047 12.4181 12.7474 16 8.35906 16C3.97075 16 0.413696 12.4192 0.413696 7.99987C0.413696 3.58053 3.97102 0 8.35906 0C12.7471 0 16.3047 3.58161 16.3047 7.99987ZM25.0212 7.99987C25.0212 12.1591 23.2424 15.5305 21.0483 15.5305C18.8543 15.5305 17.0755 12.158 17.0755 7.99987C17.0755 3.8417 18.8543 0.469184 21.0483 0.469184C23.2424 0.469184 25.0212 3.8417 25.0212 7.99987ZM28.5863 7.99987C28.5863 11.7264 27.9606 14.747 27.189 14.747C26.4174 14.747 25.7917 11.7253 25.7917 7.99987C25.7917 4.27446 26.4174 1.25269 27.1893 1.25269C27.9612 1.25269 28.5863 4.27365 28.5863 7.99987Z" fill="#565660"/>
</svg>
