<svg width="25" height="25" viewBox="0 0 25 25" fill="none" xmlns="http://www.w3.org/2000/svg">
<path d="M15.6123 22.5C20.6123 22.5 22.6123 20.5 22.6123 15.5V9.5C22.6123 4.5 20.6123 2.5 15.6123 2.5H9.6123C4.6123 2.5 2.6123 4.5 2.6123 9.5V15.5C2.6123 20.5 4.6123 22.5 9.6123 22.5H15.6123Z" stroke="#8D8D8D" stroke-width="1.5" stroke-linecap="round" stroke-linejoin="round"/>
<path fill-rule="evenodd" clip-rule="evenodd" d="M9.6123 10.5C8.50774 10.5 7.6123 9.60457 7.6123 8.5C7.6123 7.39543 8.50774 6.5 9.6123 6.5C10.7169 6.5 11.6123 7.39543 11.6123 8.5C11.6123 9.60457 10.7169 10.5 9.6123 10.5Z" stroke="#8D8D8D" stroke-width="1.5" stroke-linecap="round" stroke-linejoin="round"/>
<path d="M3.28223 19.4501L8.21223 16.1401C9.00223 15.6101 10.1422 15.6701 10.8522 16.2801L11.1822 16.5701C11.9622 17.2401 13.2222 17.2401 14.0022 16.5701L18.1622 13.0001C18.9422 12.3301 20.2022 12.3301 20.9822 13.0001L22.6122 14.4001" stroke="#8D8D8D" stroke-width="1.5" stroke-linecap="round" stroke-linejoin="round"/>
</svg>
