<svg width="25" height="25" viewBox="0 0 25 25" fill="none" xmlns="http://www.w3.org/2000/svg">
<path d="M12.4419 11.37C10.0619 11.29 8.17188 9.34 8.17188 6.94C8.17188 4.49 10.1519 2.5 12.6119 2.5C15.0619 2.5 17.0519 4.49 17.0519 6.94C17.0419 9.34 15.1519 11.29 12.7719 11.37C12.6719 11.36 12.5519 11.36 12.4419 11.37Z" stroke="#8D8D8D" stroke-width="1.5" stroke-linecap="round" stroke-linejoin="round"/>
<path d="M7.77203 20.93C10.522 22.77 15.032 22.77 17.782 20.93C20.202 19.31 20.202 16.67 17.782 15.06C15.042 13.23 10.532 13.23 7.77203 15.06C5.35203 16.68 5.35203 19.32 7.77203 20.93Z" stroke="#8D8D8D" stroke-width="1.5" stroke-linecap="round" stroke-linejoin="round"/>
</svg>
